PathFileType	3	(X/Y/Z)	D:\minhoCalibration\240510\subject2_KPNP\preferred\preferred04.trc
DataRate	CameraRate	NumFrames	NumMarkers	Units	OrigDataRate	OrigDataStartFrame	OrigNumFrames
200.0	200.0	37	10	mm	200.0	258	187	
Frame#	Time	Left_Ankle_Outer1			Left_Ankle_Inner1			Left_Knee_Outer1			Left_Knee_Inner1			Left_Wrist1			Right_Wrist1			Right_Knee_Inner1			Right_Knee_Outer1			Right_Ankle_Inner1			Right_Ankle_Outer1			
		X1	Y1	Z1	X2	Y2	Z2	X3	Y3	Z3	X4	Y4	Z4	X5	Y5	Z5	X6	Y6	Z6	X7	Y7	Z7	X8	Y8	Z8	X9	Y9	Z9	X10	Y10	Z10	
258	1.28	-531.63477	111.78255	-732.10651	-515.9928	122.76224	-677.60748	-397.12939	531.57471	-822.32599	-373.3125	516.49384	-727.85242	-491.06232	945.48346	-870.71429	-432.87482	1186.4889	-624.71814	-280.74658	1010.3417	-229.81346	-278.04926	1097.1815	-250.29305	-345.57098	1071.9756	175.2392	-304.96924	1162.2142	165.46895
259	1.285	-531.30103	112.44212	-730.297	-515.81543	123.12529	-675.77887	-397.14871	532.50647	-818.01025	-373.07373	517.29907	-724.16504	-488.97906	945.72522	-867.45581	-435.7009	1188.0487	-622.18945	-274.56287	1014.5254	-231.85419	-268.76257	1096.5054	-250.03752	-350.49503	1068.6379	174.55208	-311.91876	1159.4255	166.61571
260	1.29	-531.01941	113.1553	-728.89282	-515.66443	123.5539	-674.16089	-396.27817	533.53552	-813.87451	-372.95111	518.12433	-720.32465	-486.49295	946.18921	-865.84204	-438.70062	1189.2135	-619.6134	-276.78644	1018.2284	-230.54971	-261.45328	1094.9705	-249.9971	-348.14282	1063.7908	174.07095	-315.88217	1155.4338	166.49828
261	1.295	-530.65497	113.97723	-727.59033	-515.50751	123.90136	-672.76996	-394.88397	534.61572	-809.97156	-372.8555	518.9295	-716.51868	-483.88022	946.42902	-863.56195	-441.8266	1190.1124	-617.19867	-284.62964	1021.4181	-226.38776	-260.99298	1095.528	-250.80481	-345.33478	1059.2018	175.73151	-317.19592	1152.7601	169.40352
262	1.3	-530.30804	114.5563	-726.57166	-515.38647	124.23762	-671.53101	-392.89462	535.85315	-806.46161	-373.26093	519.81317	-712.52063	-481.35843	946.4007	-861.62665	-445.07892	1190.8912	-615.08368	-291.58102	1025.2761	-223.44221	-265.82535	1102.2278	-251.22433	-342.9173	1055.6196	178.50636	-315.73068	1150.129	174.19893
263	1.305	-529.90369	115.31707	-725.71277	-515.28595	124.68355	-670.58234	-390.81171	536.97266	-802.96411	-373.65448	520.52277	-708.73773	-479.05057	946.00281	-860.11218	-448.21558	1191.5908	-613.29773	-296.1839	1029.452	-223.0984	-274.33536	1111.9664	-250.07088	-340.06714	1052.6245	181.22641	-313.4097	1146.8903	177.95595
264	1.31	-529.8609	115.63264	-724.28088	-515.07831	125.25502	-669.59943	-388.64099	537.99219	-799.88507	-374.2883	521.21991	-705.10919	-477.17795	945.41437	-857.84064	-450.9158	1192.2334	-611.53741	-299.4379	1033.4907	-224.18488	-287.08731	1120.9781	-246.55513	-336.4704	1047.8149	182.81801	-313.45706	1143.6483	181.44357
265	1.315	-529.22772	116.77924	-723.78326	-514.72656	125.80415	-668.68884	-386.28699	538.92877	-797.20245	-375.16382	521.79175	-701.68268	-474.97324	945.0152	-856.29285	-452.79248	1192.8685	-609.94806	-300.5907	1037.5872	-225.61908	-300.93286	1126.9999	-243.32643	-332.10767	1042.6594	184.28641	-316.35101	1140.0913	184.019
266	1.32	-528.93231	117.56879	-722.74841	-514.43103	126.43369	-667.74396	-384.02719	539.79926	-794.83899	-376.08899	522.29132	-698.50391	-473.41153	944.16174	-854.5213	-454.42435	1193.7025	-608.97754	-298.95496	1042.0938	-226.83559	-313.83887	1129.0961	-240.46077	-327.81424	1037.2673	185.6369	-321.33548	1136.5636	185.57661
267	1.325	-528.5434	118.57982	-721.94934	-514.00775	127.12158	-666.74738	-381.94763	540.53577	-792.62659	-376.95224	522.80017	-695.5968	-471.5741	943.62177	-853.46277	-455.90594	1195.2992	-608.58997	-297.33096	1045.6482	-227.92848	-322.37833	1130.1591	-237.98999	-325.68988	1033.2456	187.42418	-327.27142	1134.168	186.55951
268	1.33	-528.17487	119.3964	-721.09283	-513.59216	127.85793	-665.94885	-380.01764	541.12006	-790.63544	-377.59525	523.35675	-693.06635	-469.3595	943.48114	-852.18506	-457.08762	1196.8617	-608.77124	-296.41959	1048.1953	-228.06238	-327.22842	1130.417	-235.69585	-326.81744	1031.4835	189.66495	-333.37482	1132.3806	187.35814
269	1.335	-527.72333	120.28418	-720.43689	-513.08813	128.51794	-665.45062	-378.0639	541.75879	-788.96124	-377.8873	523.9444	-690.87811	-466.83969	943.58832	-851.23438	-458.37958	1198.6769	-609.2583	-295.44766	1050.0276	-226.15115	-331.73703	1130.0922	-233.40761	-331.70499	1030.1539	193.16641	-340.61487	1129.5591	188.86607
270	1.34	-527.18231	121.24794	-720.2218	-512.50128	128.33015	-666.44989	-376.0759	542.22876	-787.57141	-377.74899	524.53741	-689.20105	-463.95816	943.86462	-851.26404	-459.89377	1200.4313	-609.90503	-295.68887	1051.5765	-223.83435	-336.6225	1129.5686	-231.2468	-335.73373	1025.3494	191.40576	-348.05496	1124.7716	190.56032
271	1.345	-526.57507	122.00694	-720.42633	-512.07385	128.90935	-666.54633	-373.55746	542.97546	-786.69409	-377.19147	525.11285	-688.08618	-461.20367	944.41254	-851.12561	-461.71869	1201.8252	-610.08417	-297.92749	1052.6066	-221.86691	-341.48129	1129.0731	-229.21445	-339.47791	1018.706	191.11009	-356.00784	1117.5721	192.11357
272	1.35	-526.13452	122.15584	-720.4873	-511.84415	130.20638	-665.91394	-371.46054	543.10748	-785.97791	-376.16095	525.67877	-687.5423	-458.32748	945.41406	-851.06226	-463.74237	1202.6519	-610.05042	-301.58176	1052.9235	-220.36943	-346.66681	1128.4999	-227.1282	-341.53909	1010.9702	191.25681	-364.36914	1107.708	194.08791
273	1.355	-525.46191	122.62667	-721.57184	-511.68622	130.67992	-666.84778	-368.82846	543.35321	-786.05493	-374.7059	526.07324	-687.57819	-454.90796	946.95343	-851.54749	-466.12445	1202.7673	-609.67053	-304.80786	1053.1897	-219.4353	-352.44934	1127.5254	-224.70677	-341.82562	1001.4741	191.00575	-372.05203	1096.0543	196.10222
274	1.36	-524.83417	123.42935	-723.59076	-511.53094	130.23875	-669.73505	-367.22375	542.85785	-785.92444	-372.7648	526.38226	-688.23572	-451.29047	948.71887	-851.74854	-468.72626	1202.2603	-608.95154	-309.39319	1052.8798	-218.20026	-358.11154	1126.3489	-222.49399	-343.31357	992.3985	192.76471	-378.95026	1083.8264	198.09688
275	1.365	-524.32355	123.33202	-725.2135	-511.74133	131.54427	-670.24719	-365.1517	542.83008	-786.32623	-370.52817	526.50781	-689.34985	-447.50369	950.37097	-852.16705	-471.56451	1201.0054	-607.89008	-313.95245	1052.2017	-216.93871	-363.74329	1124.9998	-220.35576	-344.56055	983.50983	191.0121	-384.72543	1072.657	199.53123
276	1.37	-523.43372	123.80761	-727.76312	-511.77991	132.03525	-672.59796	-363.16788	543.05664	-787.02747	-368.04599	526.40918	-690.80737	-443.6445	952.0976	-852.50238	-474.84094	1199.1206	-606.90295	-318.47446	1050.9446	-215.38866	-369.70676	1123.2515	-217.98038	-348.20334	974.73999	189.57985	-390.45502	1062.725	200.48117
277	1.375	-522.51807	124.83488	-731.10144	-511.65491	131.72525	-676.74005	-361.92664	542.81934	-787.63708	-365.42749	526.1701	-692.39185	-439.40335	954.29858	-852.20203	-478.48004	1197.0104	-605.75751	-322.85999	1048.8722	-213.70378	-375.29434	1121.2948	-215.7103	-354.80685	965.98511	189.80705	-396.19656	1053.8966	200.44254
278	1.38	-521.52258	125.44003	-734.25793	-511.61255	132.3398	-679.71204	-360.52451	542.6521	-788.73749	-362.91064	525.88885	-693.96545	-434.41507	956.75763	-853.46112	-482.42679	1194.8478	-604.61719	-326.84583	1046.3005	-212.18814	-380.22385	1119.1204	-213.71207	-361.40768	956.99109	187.42711	-402.2373	1044.9258	199.97813
279	1.385	-520.43707	125.6126	-736.82208	-511.49951	134.06834	-680.8927	-359.60913	542.26855	-789.58282	-360.58655	525.61639	-695.35962	-429.97031	958.95227	-853.46521	-486.9097	1192.8647	-603.59723	-330.32907	1043.425	-211.31482	-384.29224	1116.6929	-212.22646	-369.02017	946.58606	184.95107	-409.10745	1034.6819	199.1221
280	1.39	-519.14099	126.28512	-740.02521	-511.06512	133.7305	-685.83679	-358.09482	542.29437	-790.63647	-358.51422	525.39221	-696.54944	-425.11789	961.27179	-854.17969	-491.93817	1191.057	-602.78101	-333.18567	1040.4587	-211.2182	-387.26776	1114.2047	-211.33191	-377.62772	935.3313	182.9082	-416.9837	1022.6791	197.68161
281	1.395	-517.88715	127.03206	-743.11469	-510.72418	134.5162	-688.97198	-356.61371	542.25659	-791.17316	-356.72571	525.3103	-697.33917	-420.43332	963.43329	-854.2337	-497.37878	1189.5	-602.35052	-335.32919	1037.5172	-211.89209	-389.25735	1111.7001	-211.12981	-386.08401	922.78333	179.27654	-426.10666	1009.2077	195.7187
282	1.4	-516.4624	128.35237	-746.78577	-510.20624	135.2981	-691.85156	-354.55362	542.3631	-791.65887	-355.18539	525.3811	-697.82678	-415.48175	965.82782	-854.73657	-503.0994	1188.4966	-602.26978	-336.18854	1034.4364	-212.93747	-390.62228	1109.1783	-211.46722	-394.7326	908.96533	174.68086	-435.94318	994.06659	192.98024
283	1.405	-514.99683	128.60223	-749.0838	-509.67032	136.0356	-694.83661	-351.83636	542.80347	-791.88232	-353.92685	525.66888	-697.87384	-410.97	967.83771	-854.5387	-508.63684	1187.126	-602.50073	-336.97012	1032.0184	-213.92421	-391.66888	1106.5961	-212.22	-403.6062	894.40833	168.94711	-446.3653	978.11761	189.17465
284	1.41	-513.59912	129.37527	-751.91748	-509.14896	136.84639	-697.41614	-349.83307	542.68103	-790.99487	-352.90277	526.09137	-697.61713	-406.63287	969.7608	-854.13	-514.00598	1186.3109	-602.47095	-337.34152	1029.5894	-214.6588	-392.50787	1103.8164	-213.22476	-412.95264	879.63165	162.29941	-457.27686	961.86145	184.38089
285	1.415	-512.26654	130.03596	-754.52661	-508.60382	137.57799	-700.19739	-346.63553	543.25598	-790.4884	-352.09341	526.64197	-697.0802	-402.20523	971.71405	-854.12714	-519.14368	1185.3923	-602.85718	-337.82233	1027.0591	-215.22812	-393.34018	1100.8447	-214.30949	-419.33435	866.21387	150.84662	-468.40866	945.54572	178.59212
286	1.42	-510.84448	130.86531	-757.4856	-508.23825	138.08936	-702.39783	-343.49005	544.01666	-789.32678	-351.57907	527.2312	-696.3559	-398.94821	972.84717	-852.59766	-523.59406	1183.9327	-604.05713	-338.3233	1024.1595	-216.05206	-394.28156	1097.5005	-215.31851	-433.0466	849.03381	144.62901	-479.61069	929.19159	171.98872
287	1.425	-509.64224	131.3678	-759.89709	-507.78674	138.53137	-704.99011	-340.07278	544.58948	-788.50537	-351.4538	527.59521	-695.38635	-395.26263	974.12659	-852.27008	-527.68396	1182.3047	-605.26367	-338.92554	1020.8261	-217.15331	-395.44971	1093.6716	-216.21912	-445.05325	832.79639	135.54846	-490.95068	912.62378	164.51323
288	1.43	-508.36627	131.73457	-762.1734	-507.44547	138.86787	-707.45166	-336.87024	545.26697	-787.146	-350.97333	528.37048	-694.51703	-392.18188	975.07642	-850.81122	-531.51477	1180.5918	-606.31372	-339.71304	1016.9151	-218.35759	-396.92953	1089.3059	-216.99115	-457.30869	816.37085	125.58116	-502.43051	895.86713	156.25403
289	1.435	-506.99753	132.09184	-764.47449	-507.09677	139.3369	-709.65851	-333.24982	546.33807	-786.10785	-351.05487	528.84094	-693.56372	-389.32541	975.84607	-849.78711	-535.04291	1178.7135	-607.44427	-340.8223	1012.4946	-219.73474	-398.71609	1084.3589	-217.66066	-469.49823	799.62622	114.63917	-513.92603	878.77747	147.2238
290	1.44	-505.88953	132.38602	-766.63477	-506.80518	139.60597	-711.91516	-331.01431	546.46271	-784.26544	-351.45001	529.19336	-692.69116	-386.55768	976.53882	-848.91357	-538.2807	1176.8071	-608.64618	-342.18106	1007.4638	-221.21916	-400.73685	1078.7615	-218.27681	-481.33279	782.77094	102.86476	-525.40607	861.28186	137.42313
291	1.445	-504.55112	133.2075	-769.76959	-506.48178	139.95184	-714.07971	-328.3645	547.01959	-782.8078	-352.12323	529.44366	-691.94543	-383.82968	977.27637	-848.1391	-541.23553	1175.0358	-609.70471	-344.05127	1001.8832	-222.87183	-403.0867	1072.5126	-218.87572	-492.64877	765.9516	90.388832	-536.73004	843.53485	126.92905
292	1.45	-503.4241	133.4704	-771.93884	-506.17593	140.21344	-716.42297	-326.0907	547.37378	-781.4483	-352.76654	529.51489	-691.33435	-381.27261	977.96674	-847.40045	-543.91998	1173.2814	-610.76343	-345.69916	995.90698	-224.47652	-405.75479	1065.6051	-219.67256	-503.5296	748.94843	77.499802	-547.82068	825.4729	115.98003
293	1.455	-502.32101	133.82838	-774.24023	-505.88144	140.40811	-718.41473	-324.08875	547.5694	-780.19427	-353.35815	529.5097	-690.80969	-378.41556	979.08014	-847.2345	-546.37585	1171.5317	-611.72028	-347.95181	989.37427	-226.12944	-408.86047	1058.1171	-220.56938	-514.88678	730.87354	64.628288	-558.53143	807.30023	104.54696
294	1.46	-501.35321	133.94739	-776.23834	-505.61298	140.6176	-720.86151	-322.2836	547.64752	-779.1344	-354.02423	529.26367	-690.58466	-375.70264	980.18329	-847.02466	-548.69568	1169.6571	-612.78473	-350.64157	982.28961	-227.85561	-412.28723	1050.0339	-221.71558	-524.0686	714.60907	51.304359	-568.95355	789.04163	92.828522
